<svg version="1.1" xmlns="http://www.w3.org/2000/svg" x="0" y="0" width="370.988" height="112.271" viewBox="0 0 370.988 112.271" xml:space="preserve"><path d="M114.356 96.39l-1.81-2.962c-2.22 2.304-5.348 3.783-8.886 3.783-6.83 0-12.342-5.512-12.342-12.342V79.93c0-6.83 5.513-12.344 12.342-12.344h8.228v-9.05c0-4.524-3.703-8.23-8.228-8.23s-8.23 3.704-8.23 8.23v4.938h-4.113V58.54c0-6.83 5.513-12.344 12.342-12.344 6.828 0 12.34 5.514 12.34 12.344v37.85h-1.644zm-2.468-24.684h-8.228c-4.525 0-8.23 3.703-8.23 8.23v4.936c0 4.526 3.704 8.23 8.23 8.23s8.228-3.703 8.228-8.23V71.706zm22.627 25.507c-6.83 0-12.343-5.513-12.343-12.343V58.54c0-6.83 5.513-12.343 12.343-12.343s12.342 5.513 12.342 12.343v4.938h-4.114V58.54c0-4.523-3.703-8.23-8.228-8.23-4.526 0-8.23 3.705-8.23 8.23v26.33c0 4.526 3.704 8.23 8.23 8.23 4.525 0 8.228-3.703 8.228-8.23v-4.937h4.114v4.937c0 6.83-5.512 12.343-12.342 12.343zm32.913-.823c-6.83 0-12.342-5.516-12.342-12.345v-32.91h-4.114V47.02h4.114v-8.23h4.113v8.23h12.34v4.11H159.2v32.914c0 4.526 3.703 8.23 8.228 8.23h4.113v4.113h-4.112v.003zm9.05-61.712v-4.114h4.114v4.114h-4.115zm0 61.712V47.02h4.114v49.37h-4.115zm24.272 0h-4.113L185.53 47.02h4.113l9.05 39.496 9.054-39.495h4.113l-11.11 49.37zm27.564.823c-6.83 0-12.342-5.513-12.342-12.343V58.54c0-6.83 5.512-12.343 12.342-12.343s12.343 5.513 12.343 12.343v13.165h-20.57V84.87c0 4.526 3.702 8.23 8.228 8.23s8.23-3.703 8.23-8.23v-4.937h4.114v4.937c-.002 6.83-5.515 12.343-12.346 12.343zm8.228-38.672c0-4.52-3.702-8.227-8.228-8.227s-8.23 3.703-8.23 8.23v9.05h16.457l.002-9.052z"/><path fill="#C02126" d="M247.484 96.39V30.564h6.42V96.39h-6.42zm35.875 0l-1.317-2.224c-2.223 1.895-5.184 3.045-8.31 3.045-7.24 0-13.085-5.842-13.085-13.082v-4.77c0-7.24 5.843-13.084 13.082-13.084h6.748v-7.57c0-3.703-3.045-6.747-6.748-6.747s-6.748 3.044-6.748 6.747v5.925h-6.336v-5.926c0-7.24 5.843-13.082 13.082-13.082s13.082 5.84 13.082 13.082V96.39h-3.455.004zm-2.88-23.78h-6.748c-3.703 0-6.748 3.045-6.748 6.748v4.77c0 3.703 3.045 6.747 6.748 6.747s6.746-3.044 6.746-6.746V72.61h.002zm52 23.78V58.705c0-3.703-3.046-6.747-6.747-6.747-3.702 0-6.747 3.044-6.747 6.747V96.39h-6.335V58.705c0-3.703-3.043-6.747-6.746-6.747-3.702 0-6.747 3.044-6.747 6.747V96.39h-6.335V46.445h3.457l1.315 2.14c2.22-1.81 5.102-2.962 8.31-2.962 3.95 0 7.486 1.73 9.874 4.524 2.386-2.797 6.007-4.524 9.955-4.524 7.24 0 13.083 5.84 13.083 13.082V96.39h-6.338zm25.425.823c-2.468 0-4.77-.738-6.746-1.893v16.95h-6.338V46.445h3.456l1.313 2.14c2.225-1.81 5.105-2.962 8.313-2.962 7.24 0 13.083 5.84 13.083 13.082V84.13c0 7.24-5.84 13.083-13.083 13.083h.002zm6.748-38.508c0-3.703-3.044-6.747-6.748-6.747-3.702 0-6.746 3.044-6.746 6.747V84.13c0 3.702 3.042 6.664 6.744 6.664 3.704 0 6.748-2.962 6.748-6.664V58.705zM51.173 36.876s6.32 11.29 18.43 2.932c0 0 7.513-6.584 13.96-15.412 0 0 23.967-31.806 46.776-20.855 0 0-18.1-10.832-36.576 5.407 0 0-13.86 12.687-24.09 23.245 0 0-8.027 6.825-12.056 3.072 2.71-.774 4.695-3.267 4.695-6.226 0-3.578-2.9-6.478-6.477-6.478-3.578 0-6.478 2.898-6.478 6.478 0 .312.03.618.073.92-.076 2.367.546 4.917 1.74 6.918h.003zM64.925 92.02c-3.12 2.45-5.325 3.137-11.202 4.173-14.078 2.938-25.297-2.756-25.297-2.756 19.506 18.552 40.338 2.195 40.338 2.195 5.434-5.007 1.686-10.546 1.686-10.546s-2.796 4.92-5.525 6.932v.002zm25.72-64.556s-4.824 7.095-9.75 17.446c0 0-14.04 28.97-25.796 32.795 0 0-19.09 5.203-24.12-11.77 0 0-4.937-19.513 13.374-20.147 0 0 10.133.223 9.588 14.064 0 0 4.917-9.53-1.926-16.012 0 0-12.15-10.105-23.838-.187 0 0-1.026.673-2.378 2.037l-.02-.005c-.05.065-.104.13-.16.195-.664.688-1.393 1.534-2.118 2.542-6.197 7.252-10.88 10.935-10.88 10.935l.006.003c-5.368 4.05-8.985 7.6-8.985 7.6C-5.212 77.917 4.86 84.936 4.86 84.936c9.785 7.238 13.394-3.2 13.394-3.2 1.277-6.875-5.487-6.59-5.487-6.59C8.075 74.57 8.29 80.09 8.29 80.09c-6.15-3.813 2.505-12.57 2.505-12.57 2.797-2.332 5.737-4.89 8.573-7.39-.317 4.77.7 10.61 4.27 17.575 0 0 12.79 20.164 34.64 8.98 0 0 14.833-6.95 24.356-33.49 0 0 13.212-46.116 40.858-49.148 0 0-15.466-4.467-32.845 23.414l-.002.004zm-64.93 36.46c.2 2.312.46 3.41.38 4.42l-.002.076s-3.995-3.24-3.804-6.495c.24-4.076 2.63-18.85 16.184-18.77 0 0-12.083 3.824-12.692 15.554 0-.003-.26 2.976-.07 5.214h.003z"/></svg>